<svg xmlns="http://www.w3.org/2000/svg" xmlns:xlink="http://www.w3.org/1999/xlink" width="375" viewBox="0 0 375 375" height="375" version="1.0"><defs><clipPath id="a"><path d="M 112.5 125.15625 L 238 125.15625 L 238 219 L 112.5 219 Z M 112.5 125.15625"/></clipPath><clipPath id="b"><path d="M 122 125.15625 L 240 125.15625 L 240 202 L 122 202 Z M 122 125.15625"/></clipPath><clipPath id="c"><path d="M 138 200 L 240 200 L 240 231.65625 L 138 231.65625 Z M 138 200"/></clipPath><clipPath id="d"><path d="M 174 168 L 186 168 L 186 187.6875 L 174 187.6875 Z M 174 168"/></clipPath><clipPath id="e"><path d="M 167 151 L 187 151 L 187 171 L 167 171 Z M 167 151"/></clipPath><clipPath id="f"><path d="M 167.144531 161.285156 C 167.144531 155.980469 171.417969 151.675781 176.695312 151.675781 C 181.96875 151.675781 186.25 155.972656 186.25 161.285156 C 186.25 166.589844 181.976562 170.894531 176.695312 170.894531 C 171.425781 170.894531 167.144531 166.589844 167.144531 161.285156 Z M 167.144531 161.285156"/></clipPath><linearGradient x1=".5" gradientTransform="matrix(19.10181 0 0 19.22071 167.146 151.675)" xmlns:xlink="http://www.w3.org/1999/xlink" y1="0" x2=".5" gradientUnits="userSpaceOnUse" y2="1" xlink:type="simple" xlink:actuate="onLoad" id="g" xlink:show="other"><stop stop-color="#86BBE5" offset="0"/><stop stop-color="#86BBE5" offset=".008"/><stop stop-color="#85BBE5" offset=".016"/><stop stop-color="#84BAE4" offset=".023"/><stop stop-color="#83B9E4" offset=".031"/><stop stop-color="#82B9E4" offset=".039"/><stop stop-color="#81B8E3" offset=".047"/><stop stop-color="#81B8E3" offset=".055"/><stop stop-color="#80B7E3" offset=".063"/><stop stop-color="#7FB6E2" offset=".07"/><stop stop-color="#7EB6E2" offset=".078"/><stop stop-color="#7DB5E2" offset=".086"/><stop stop-color="#7CB5E1" offset=".094"/><stop stop-color="#7BB4E1" offset=".102"/><stop stop-color="#7AB3E1" offset=".109"/><stop stop-color="#79B3E0" offset=".117"/><stop stop-color="#78B2E0" offset=".125"/><stop stop-color="#77B2E0" offset=".133"/><stop stop-color="#76B1DF" offset=".141"/><stop stop-color="#75B0DF" offset=".148"/><stop stop-color="#74B0DE" offset=".156"/><stop stop-color="#73AFDE" offset=".164"/><stop stop-color="#72AFDE" offset=".172"/><stop stop-color="#71AEDD" offset=".18"/><stop stop-color="#70AEDD" offset=".188"/><stop stop-color="#6FADDD" offset=".195"/><stop stop-color="#6EACDC" offset=".203"/><stop stop-color="#6DACDC" offset=".211"/><stop stop-color="#6CABDC" offset=".219"/><stop stop-color="#6BABDB" offset=".227"/><stop stop-color="#6BAADB" offset=".234"/><stop stop-color="#6AA9DB" offset=".242"/><stop stop-color="#69A9DA" offset=".25"/><stop stop-color="#68A8DA" offset=".258"/><stop stop-color="#67A8DA" offset=".266"/><stop stop-color="#66A7D9" offset=".273"/><stop stop-color="#65A6D9" offset=".281"/><stop stop-color="#64A6D9" offset=".289"/><stop stop-color="#63A5D8" offset=".297"/><stop stop-color="#62A5D8" offset=".305"/><stop stop-color="#61A4D7" offset=".313"/><stop stop-color="#60A3D7" offset=".32"/><stop stop-color="#5FA3D7" offset=".328"/><stop stop-color="#5EA2D6" offset=".336"/><stop stop-color="#5DA2D6" offset=".344"/><stop stop-color="#5CA1D6" offset=".352"/><stop stop-color="#5BA1D5" offset=".359"/><stop stop-color="#5AA0D5" offset=".367"/><stop stop-color="#599FD5" offset=".375"/><stop stop-color="#589FD4" offset=".383"/><stop stop-color="#579ED4" offset=".391"/><stop stop-color="#569ED4" offset=".398"/><stop stop-color="#569DD3" offset=".406"/><stop stop-color="#559CD3" offset=".414"/><stop stop-color="#549CD3" offset=".422"/><stop stop-color="#539BD2" offset=".43"/><stop stop-color="#529BD2" offset=".438"/><stop stop-color="#519AD2" offset=".445"/><stop stop-color="#5099D1" offset=".453"/><stop stop-color="#4F99D1" offset=".461"/><stop stop-color="#4E98D0" offset=".469"/><stop stop-color="#4D98D0" offset=".477"/><stop stop-color="#4C97D0" offset=".484"/><stop stop-color="#4B96CF" offset=".492"/><stop stop-color="#4A96CF" offset=".5"/><stop stop-color="#4995CF" offset=".508"/><stop stop-color="#4895CE" offset=".516"/><stop stop-color="#4794CE" offset=".523"/><stop stop-color="#4694CE" offset=".531"/><stop stop-color="#4593CD" offset=".539"/><stop stop-color="#4492CD" offset=".547"/><stop stop-color="#4392CD" offset=".555"/><stop stop-color="#4291CC" offset=".563"/><stop stop-color="#4191CC" offset=".57"/><stop stop-color="#4090CC" offset=".578"/><stop stop-color="#408FCB" offset=".586"/><stop stop-color="#3F8FCB" offset=".594"/><stop stop-color="#3E8ECB" offset=".602"/><stop stop-color="#3D8ECA" offset=".609"/><stop stop-color="#3C8DCA" offset=".617"/><stop stop-color="#3B8CCA" offset=".625"/><stop stop-color="#3A8CC9" offset=".633"/><stop stop-color="#398BC9" offset=".641"/><stop stop-color="#388BC8" offset=".648"/><stop stop-color="#378AC8" offset=".656"/><stop stop-color="#3689C8" offset=".664"/><stop stop-color="#3589C7" offset=".672"/><stop stop-color="#3488C7" offset=".68"/><stop stop-color="#3388C7" offset=".688"/><stop stop-color="#3287C6" offset=".695"/><stop stop-color="#3186C6" offset=".703"/><stop stop-color="#3086C6" offset=".711"/><stop stop-color="#2F85C5" offset=".719"/><stop stop-color="#2E85C5" offset=".727"/><stop stop-color="#2D84C5" offset=".734"/><stop stop-color="#2C84C4" offset=".742"/><stop stop-color="#2B83C4" offset=".75"/><stop stop-color="#2A82C4" offset=".758"/><stop stop-color="#2A82C3" offset=".766"/><stop stop-color="#2981C3" offset=".773"/><stop stop-color="#2881C3" offset=".781"/><stop stop-color="#2780C2" offset=".789"/><stop stop-color="#267FC2" offset=".797"/><stop stop-color="#257FC1" offset=".805"/><stop stop-color="#247EC1" offset=".813"/><stop stop-color="#237EC1" offset=".82"/><stop stop-color="#227DC0" offset=".828"/><stop stop-color="#217CC0" offset=".836"/><stop stop-color="#207CC0" offset=".844"/><stop stop-color="#1F7BBF" offset=".852"/><stop stop-color="#1E7BBF" offset=".859"/><stop stop-color="#1D7ABF" offset=".867"/><stop stop-color="#1C79BE" offset=".875"/><stop stop-color="#1B79BE" offset=".883"/><stop stop-color="#1A78BE" offset=".891"/><stop stop-color="#1978BD" offset=".898"/><stop stop-color="#1877BD" offset=".906"/><stop stop-color="#1777BD" offset=".914"/><stop stop-color="#1676BC" offset=".922"/><stop stop-color="#1575BC" offset=".93"/><stop stop-color="#1575BC" offset=".938"/><stop stop-color="#1474BB" offset=".945"/><stop stop-color="#1374BB" offset=".953"/><stop stop-color="#1273BA" offset=".961"/><stop stop-color="#1172BA" offset=".969"/><stop stop-color="#1072BA" offset="1"/></linearGradient></defs><g clip-path="url(#a)"><path fill="#428782" d="M 206.746094 126.085938 L 122.457031 125.210938 C 117.582031 128.507812 115.09375 132.714844 113.800781 135.910156 C 112.484375 139.15625 112.550781 145.332031 113.371094 148.585938 C 113.429688 148.824219 138.699219 218.023438 138.699219 218.023438 L 237.65625 200.945312 L 206.746094 126.085938"/></g><g clip-path="url(#b)"><path fill="#5CBEB4" d="M 152.441406 201.824219 L 239.628906 202 L 206.746094 126.085938 L 122.457031 125.210938 L 152.441406 201.824219"/></g><g clip-path="url(#c)"><path fill="#428782" d="M 152.070312 200.828125 L 237.5 200.828125 C 238.871094 200.828125 239.988281 201.945312 239.988281 203.328125 C 239.988281 204.707031 238.871094 205.828125 237.5 205.828125 C 234.625 205.828125 229.105469 210.207031 229.105469 216.191406 C 229.105469 222.179688 234.625 226.554688 237.5 226.554688 C 238.871094 226.554688 239.988281 227.675781 239.988281 229.054688 C 239.988281 230.4375 238.871094 231.558594 237.5 231.558594 L 152.070312 231.558594 C 146.050781 231.558594 138.699219 224.46875 138.699219 216.191406 C 138.699219 207.917969 146.050781 200.828125 152.070312 200.828125"/></g><path fill="#FFF" d="M 152.070312 203.328125 L 237.5 203.328125 C 233.046875 203.328125 226.617188 209.085938 226.617188 216.191406 C 226.617188 223.300781 233.046875 229.054688 237.5 229.054688 L 152.070312 229.054688 C 147.617188 229.054688 141.191406 223.300781 141.191406 216.191406 C 141.191406 209.085938 147.617188 203.328125 152.070312 203.328125"/><path fill="#EAE5CC" d="M 152.070312 203.328125 L 237.5 203.328125 C 235.835938 203.328125 233.902344 204.128906 232.132812 205.503906 L 151.78125 205.503906 C 151.34375 205.503906 150.988281 205.65625 150.988281 205.847656 C 150.988281 206.039062 151.34375 206.191406 151.78125 206.191406 L 231.308594 206.191406 C 230.84375 206.613281 230.402344 207.078125 229.980469 207.574219 L 151.78125 207.574219 C 151.34375 207.574219 150.988281 207.726562 150.988281 207.917969 C 150.988281 208.109375 151.34375 208.265625 151.78125 208.265625 L 229.417969 208.265625 C 229.089844 208.699219 228.78125 209.160156 228.496094 209.640625 L 151.78125 209.640625 C 151.34375 209.640625 150.988281 209.796875 150.988281 209.984375 C 150.988281 210.175781 151.34375 210.332031 151.78125 210.332031 L 228.109375 210.332031 C 227.878906 210.777344 227.671875 211.234375 227.488281 211.707031 L 151.78125 211.707031 C 151.34375 211.707031 150.988281 211.863281 150.988281 212.054688 C 150.988281 212.25 151.34375 212.402344 151.78125 212.402344 L 227.226562 212.402344 C 227.082031 212.847656 226.964844 213.3125 226.871094 213.777344 L 151.78125 213.777344 C 151.34375 213.777344 150.988281 213.933594 150.988281 214.121094 C 150.988281 214.316406 151.34375 214.46875 151.78125 214.46875 L 226.757812 214.46875 C 226.691406 214.921875 226.648438 215.378906 226.632812 215.847656 L 151.78125 215.847656 C 151.34375 215.847656 150.988281 216 150.988281 216.191406 C 150.988281 216.382812 151.34375 216.539062 151.78125 216.539062 L 226.632812 216.539062 C 226.648438 217.003906 226.691406 217.460938 226.757812 217.914062 L 151.785156 217.914062 C 151.34375 217.914062 150.984375 218.066406 150.984375 218.257812 C 150.984375 218.453125 151.34375 218.609375 151.785156 218.609375 L 226.871094 218.609375 C 226.964844 219.074219 227.082031 219.535156 227.226562 219.984375 L 151.785156 219.984375 C 151.34375 219.984375 150.984375 220.136719 150.984375 220.328125 C 150.984375 220.519531 151.34375 220.675781 151.785156 220.675781 L 227.488281 220.675781 C 227.671875 221.148438 227.878906 221.609375 228.109375 222.050781 L 151.785156 222.050781 C 151.34375 222.050781 150.984375 222.207031 150.984375 222.398438 C 150.984375 222.589844 151.34375 222.746094 151.785156 222.746094 L 228.496094 222.746094 C 228.78125 223.226562 229.089844 223.683594 229.417969 224.121094 L 151.785156 224.121094 C 151.34375 224.121094 150.984375 224.277344 150.984375 224.464844 C 150.984375 224.65625 151.34375 224.8125 151.785156 224.8125 L 229.980469 224.8125 C 230.402344 225.304688 230.84375 225.773438 231.304688 226.191406 L 151.785156 226.191406 C 151.34375 226.191406 150.984375 226.34375 150.984375 226.535156 C 150.984375 226.726562 151.34375 226.882812 151.785156 226.882812 L 232.128906 226.882812 C 233.902344 228.253906 235.835938 229.054688 237.5 229.054688 L 152.070312 229.054688 C 147.617188 229.054688 141.191406 223.300781 141.191406 216.191406 C 141.191406 209.085938 147.617188 203.328125 152.070312 203.328125"/><path fill="#EF3F36" d="M 176.761719 135.164062 C 176.761719 135.164062 191.917969 134.476562 199.949219 149.808594 L 175.472656 149.808594 C 175.472656 149.808594 170.851562 149.65625 166.90625 155.296875 C 165.773438 157.664062 164.554688 160.101562 165.921875 164.90625 C 163.949219 161.550781 155.464844 146.675781 155.464844 146.675781 C 155.464844 146.675781 161.449219 135.769531 176.761719 135.164062 Z M 176.761719 135.164062"/><path fill="#FCD900" d="M 199.164062 174.078125 C 199.164062 174.078125 192.171875 187.628906 174.96875 186.960938 C 177.09375 183.257812 187.210938 165.628906 187.210938 165.628906 C 187.210938 165.628906 189.65625 161.675781 186.769531 155.417969 C 185.304688 153.242188 183.8125 150.96875 178.992188 149.757812 C 182.867188 149.722656 199.90625 149.757812 199.90625 149.757812 C 199.90625 149.757812 206.292969 160.429688 199.164062 174.074219 Z M 199.164062 174.078125"/><path fill="#61BC5B" d="M 154.464844 174.183594 C 154.464844 174.183594 146.292969 161.316406 155.476562 146.65625 C 157.59375 150.355469 167.714844 167.988281 167.714844 167.988281 C 167.714844 167.988281 169.894531 172.09375 176.71875 172.707031 C 179.320312 172.515625 182.023438 172.351562 185.484375 168.765625 C 183.574219 172.160156 175.023438 186.988281 175.023438 186.988281 C 175.023438 186.988281 162.640625 187.214844 154.464844 174.183594 Z M 154.464844 174.183594"/><g clip-path="url(#d)"><path fill="#5AB055" d="M 174.960938 187.085938 L 178.40625 172.628906 C 178.40625 172.628906 182.1875 172.328125 185.363281 168.828125 C 183.394531 172.316406 174.960938 187.085938 174.960938 187.085938 Z M 174.960938 187.085938"/></g><path fill="#FFF" d="M 165.226562 161.285156 C 165.226562 154.910156 170.363281 149.742188 176.695312 149.742188 C 183.03125 149.742188 188.167969 154.910156 188.167969 161.285156 C 188.167969 167.660156 183.03125 172.828125 176.695312 172.828125 C 170.363281 172.820312 165.226562 167.660156 165.226562 161.285156 Z M 165.226562 161.285156"/><g clip-path="url(#e)"><g clip-path="url(#f)"><path fill="url(#g)" d="M 167.144531 151.675781 L 167.144531 170.894531 L 186.25 170.894531 L 186.25 151.675781 Z M 167.144531 151.675781"/></g></g><path fill="#EACA05" d="M 199.902344 149.765625 L 185.722656 153.949219 C 185.722656 153.949219 183.585938 150.789062 178.988281 149.765625 C 182.972656 149.742188 199.902344 149.765625 199.902344 149.765625 Z M 199.902344 149.765625"/><path fill="#DF3A32" d="M 165.644531 164.378906 C 163.652344 160.90625 155.464844 146.675781 155.464844 146.675781 L 165.964844 157.128906 C 165.964844 157.128906 164.886719 159.359375 165.289062 162.554688 Z M 165.644531 164.378906"/></svg>