<svg xmlns="http://www.w3.org/2000/svg" xmlns:xlink="http://www.w3.org/1999/xlink" width="375" viewBox="0 0 375 375" height="375" version="1.0"><defs><clipPath id="a"><path d="M 112.5 125.15625 L 147 125.15625 L 147 151 L 112.5 151 Z M 112.5 125.15625"/></clipPath><clipPath id="b"><path d="M 115 125.15625 L 147 125.15625 L 147 146 L 115 146 Z M 115 125.15625"/></clipPath><clipPath id="c"><path d="M 119 145 L 147 145 L 147 153.65625 L 119 153.65625 Z M 119 145"/></clipPath><clipPath id="d"><path d="M 124 127.648438 L 137 127.648438 L 137 136 L 124 136 Z M 124 127.648438"/></clipPath><clipPath id="e"><path d="M 129 131 L 138 131 L 138 141.898438 L 129 141.898438 Z M 129 131"/></clipPath><clipPath id="f"><path d="M 122 130 L 133 130 L 133 141.898438 L 122 141.898438 Z M 122 130"/></clipPath><clipPath id="g"><path d="M 129 136 L 133 136 L 133 141.898438 L 129 141.898438 Z M 129 136"/></clipPath><clipPath id="h"><path d="M 127 132 L 133 132 L 133 138 L 127 138 Z M 127 132"/></clipPath><clipPath id="i"><path d="M 127.3125 134.832031 C 127.3125 133.414062 128.484375 132.261719 129.9375 132.261719 C 131.386719 132.261719 132.5625 133.410156 132.5625 134.832031 C 132.5625 136.253906 131.390625 137.40625 129.9375 137.40625 C 128.488281 137.40625 127.3125 136.253906 127.3125 134.832031 Z M 127.3125 134.832031"/></clipPath><linearGradient x1=".5" gradientTransform="matrix(5.253 0 0 5.14453 127.31 132.261)" xmlns:xlink="http://www.w3.org/1999/xlink" y1="0" x2=".5" gradientUnits="userSpaceOnUse" y2="1" xlink:type="simple" xlink:actuate="onLoad" id="j" xlink:show="other"><stop stop-color="#86BBE5" offset="0"/><stop stop-color="#86BBE5" offset=".008"/><stop stop-color="#85BBE5" offset=".016"/><stop stop-color="#84BAE4" offset=".023"/><stop stop-color="#83B9E4" offset=".031"/><stop stop-color="#82B9E4" offset=".039"/><stop stop-color="#81B8E3" offset=".047"/><stop stop-color="#81B8E3" offset=".055"/><stop stop-color="#80B7E3" offset=".063"/><stop stop-color="#7FB6E2" offset=".07"/><stop stop-color="#7EB6E2" offset=".078"/><stop stop-color="#7DB5E2" offset=".086"/><stop stop-color="#7CB5E1" offset=".094"/><stop stop-color="#7BB4E1" offset=".102"/><stop stop-color="#7AB3E1" offset=".109"/><stop stop-color="#79B3E0" offset=".117"/><stop stop-color="#78B2E0" offset=".125"/><stop stop-color="#77B2E0" offset=".133"/><stop stop-color="#76B1DF" offset=".141"/><stop stop-color="#75B0DF" offset=".148"/><stop stop-color="#74B0DE" offset=".156"/><stop stop-color="#73AFDE" offset=".164"/><stop stop-color="#72AFDE" offset=".172"/><stop stop-color="#71AEDD" offset=".18"/><stop stop-color="#70AEDD" offset=".188"/><stop stop-color="#6FADDD" offset=".195"/><stop stop-color="#6EACDC" offset=".203"/><stop stop-color="#6DACDC" offset=".211"/><stop stop-color="#6CABDC" offset=".219"/><stop stop-color="#6BABDB" offset=".227"/><stop stop-color="#6BAADB" offset=".234"/><stop stop-color="#6AA9DB" offset=".242"/><stop stop-color="#69A9DA" offset=".25"/><stop stop-color="#68A8DA" offset=".258"/><stop stop-color="#67A8DA" offset=".266"/><stop stop-color="#66A7D9" offset=".273"/><stop stop-color="#65A6D9" offset=".281"/><stop stop-color="#64A6D9" offset=".289"/><stop stop-color="#63A5D8" offset=".297"/><stop stop-color="#62A5D8" offset=".305"/><stop stop-color="#61A4D7" offset=".313"/><stop stop-color="#60A3D7" offset=".32"/><stop stop-color="#5FA3D7" offset=".328"/><stop stop-color="#5EA2D6" offset=".336"/><stop stop-color="#5DA2D6" offset=".344"/><stop stop-color="#5CA1D6" offset=".352"/><stop stop-color="#5BA1D5" offset=".359"/><stop stop-color="#5AA0D5" offset=".367"/><stop stop-color="#599FD5" offset=".375"/><stop stop-color="#589FD4" offset=".383"/><stop stop-color="#579ED4" offset=".391"/><stop stop-color="#569ED4" offset=".398"/><stop stop-color="#569DD3" offset=".406"/><stop stop-color="#559CD3" offset=".414"/><stop stop-color="#549CD3" offset=".422"/><stop stop-color="#539BD2" offset=".43"/><stop stop-color="#529BD2" offset=".438"/><stop stop-color="#519AD2" offset=".445"/><stop stop-color="#5099D1" offset=".453"/><stop stop-color="#4F99D1" offset=".461"/><stop stop-color="#4E98D0" offset=".469"/><stop stop-color="#4D98D0" offset=".477"/><stop stop-color="#4C97D0" offset=".484"/><stop stop-color="#4B96CF" offset=".492"/><stop stop-color="#4A96CF" offset=".5"/><stop stop-color="#4995CF" offset=".508"/><stop stop-color="#4895CE" offset=".516"/><stop stop-color="#4794CE" offset=".523"/><stop stop-color="#4694CE" offset=".531"/><stop stop-color="#4593CD" offset=".539"/><stop stop-color="#4492CD" offset=".547"/><stop stop-color="#4392CD" offset=".555"/><stop stop-color="#4291CC" offset=".563"/><stop stop-color="#4191CC" offset=".57"/><stop stop-color="#4090CC" offset=".578"/><stop stop-color="#408FCB" offset=".586"/><stop stop-color="#3F8FCB" offset=".594"/><stop stop-color="#3E8ECB" offset=".602"/><stop stop-color="#3D8ECA" offset=".609"/><stop stop-color="#3C8DCA" offset=".617"/><stop stop-color="#3B8CCA" offset=".625"/><stop stop-color="#3A8CC9" offset=".633"/><stop stop-color="#398BC9" offset=".641"/><stop stop-color="#388BC8" offset=".648"/><stop stop-color="#378AC8" offset=".656"/><stop stop-color="#3689C8" offset=".664"/><stop stop-color="#3589C7" offset=".672"/><stop stop-color="#3488C7" offset=".68"/><stop stop-color="#3388C7" offset=".688"/><stop stop-color="#3287C6" offset=".695"/><stop stop-color="#3186C6" offset=".703"/><stop stop-color="#3086C6" offset=".711"/><stop stop-color="#2F85C5" offset=".719"/><stop stop-color="#2E85C5" offset=".727"/><stop stop-color="#2D84C5" offset=".734"/><stop stop-color="#2C84C4" offset=".742"/><stop stop-color="#2B83C4" offset=".75"/><stop stop-color="#2A82C4" offset=".758"/><stop stop-color="#2A82C3" offset=".766"/><stop stop-color="#2981C3" offset=".773"/><stop stop-color="#2881C3" offset=".781"/><stop stop-color="#2780C2" offset=".789"/><stop stop-color="#267FC2" offset=".797"/><stop stop-color="#257FC1" offset=".805"/><stop stop-color="#247EC1" offset=".813"/><stop stop-color="#237EC1" offset=".82"/><stop stop-color="#227DC0" offset=".828"/><stop stop-color="#217CC0" offset=".836"/><stop stop-color="#207CC0" offset=".844"/><stop stop-color="#1F7BBF" offset=".852"/><stop stop-color="#1E7BBF" offset=".859"/><stop stop-color="#1D7ABF" offset=".867"/><stop stop-color="#1C79BE" offset=".875"/><stop stop-color="#1B79BE" offset=".883"/><stop stop-color="#1A78BE" offset=".891"/><stop stop-color="#1978BD" offset=".898"/><stop stop-color="#1877BD" offset=".906"/><stop stop-color="#1777BD" offset=".914"/><stop stop-color="#1676BC" offset=".922"/><stop stop-color="#1575BC" offset=".93"/><stop stop-color="#1575BC" offset=".938"/><stop stop-color="#1474BB" offset=".945"/><stop stop-color="#1374BB" offset=".953"/><stop stop-color="#1273BA" offset=".961"/><stop stop-color="#1172BA" offset=".969"/><stop stop-color="#1072BA" offset="1"/></linearGradient></defs><g clip-path="url(#a)"><path fill="#428782" d="M 138.003906 125.40625 L 115.195312 125.171875 C 113.875 126.054688 113.203125 127.179688 112.851562 128.035156 C 112.496094 128.902344 112.515625 130.554688 112.734375 131.425781 C 112.75 131.492188 119.589844 150.007812 119.589844 150.007812 L 146.367188 145.4375 L 138.003906 125.40625"/></g><g clip-path="url(#b)"><path fill="#5CBEB4" d="M 123.308594 145.671875 L 146.898438 145.71875 L 138.003906 125.40625 L 115.195312 125.171875 L 123.308594 145.671875"/></g><g clip-path="url(#c)"><path fill="#428782" d="M 123.207031 145.40625 L 146.324219 145.40625 C 146.695312 145.40625 146.996094 145.703125 146.996094 146.074219 C 146.996094 146.445312 146.695312 146.746094 146.324219 146.746094 C 145.546875 146.746094 144.050781 147.914062 144.050781 149.519531 C 144.050781 151.121094 145.546875 152.289062 146.324219 152.289062 C 146.695312 152.289062 146.996094 152.589844 146.996094 152.960938 C 146.996094 153.328125 146.695312 153.628906 146.324219 153.628906 L 123.207031 153.628906 C 121.578125 153.628906 119.589844 151.730469 119.589844 149.519531 C 119.589844 147.304688 121.578125 145.40625 123.207031 145.40625"/></g><path fill="#FFF" d="M 123.207031 146.074219 L 146.324219 146.074219 C 145.117188 146.074219 143.378906 147.617188 143.378906 149.519531 C 143.378906 151.417969 145.117188 152.960938 146.324219 152.960938 L 123.207031 152.960938 C 122.003906 152.960938 120.261719 151.417969 120.261719 149.519531 C 120.261719 147.617188 122.003906 146.074219 123.207031 146.074219"/><path fill="#EAE5CC" d="M 123.207031 146.074219 L 146.324219 146.074219 C 145.875 146.074219 145.351562 146.289062 144.871094 146.65625 L 123.128906 146.65625 C 123.011719 146.65625 122.914062 146.699219 122.914062 146.75 C 122.914062 146.800781 123.011719 146.839844 123.128906 146.839844 L 144.648438 146.839844 C 144.523438 146.953125 144.402344 147.078125 144.289062 147.210938 L 123.128906 147.210938 C 123.011719 147.210938 122.914062 147.25 122.914062 147.304688 C 122.914062 147.355469 123.011719 147.394531 123.128906 147.394531 L 144.136719 147.394531 C 144.046875 147.511719 143.964844 147.636719 143.886719 147.765625 L 123.128906 147.765625 C 123.011719 147.765625 122.914062 147.804688 122.914062 147.855469 C 122.914062 147.90625 123.011719 147.949219 123.128906 147.949219 L 143.78125 147.949219 C 143.71875 148.070312 143.664062 148.191406 143.613281 148.316406 L 123.128906 148.316406 C 123.011719 148.316406 122.914062 148.359375 122.914062 148.410156 C 122.914062 148.460938 123.011719 148.503906 123.128906 148.503906 L 143.542969 148.503906 C 143.503906 148.621094 143.472656 148.746094 143.449219 148.871094 L 123.128906 148.871094 C 123.011719 148.871094 122.914062 148.914062 122.914062 148.964844 C 122.914062 149.015625 123.011719 149.054688 123.128906 149.054688 L 143.417969 149.054688 C 143.398438 149.175781 143.386719 149.300781 143.382812 149.425781 L 123.128906 149.425781 C 123.011719 149.425781 122.914062 149.464844 122.914062 149.515625 C 122.914062 149.566406 123.011719 149.609375 123.128906 149.609375 L 143.382812 149.609375 C 143.386719 149.734375 143.398438 149.855469 143.417969 149.976562 L 123.128906 149.976562 C 123.011719 149.976562 122.914062 150.019531 122.914062 150.070312 C 122.914062 150.121094 123.011719 150.164062 123.128906 150.164062 L 143.449219 150.164062 C 143.472656 150.289062 143.503906 150.410156 143.542969 150.53125 L 123.128906 150.53125 C 123.011719 150.53125 122.914062 150.574219 122.914062 150.625 C 122.914062 150.675781 123.011719 150.71875 123.128906 150.71875 L 143.613281 150.71875 C 143.664062 150.84375 143.71875 150.96875 143.78125 151.085938 L 123.128906 151.085938 C 123.011719 151.085938 122.914062 151.128906 122.914062 151.179688 C 122.914062 151.230469 123.011719 151.269531 123.128906 151.269531 L 143.886719 151.269531 C 143.964844 151.398438 144.046875 151.523438 144.136719 151.640625 L 123.128906 151.640625 C 123.011719 151.640625 122.914062 151.679688 122.914062 151.730469 C 122.914062 151.78125 123.011719 151.824219 123.128906 151.824219 L 144.289062 151.824219 C 144.402344 151.957031 144.523438 152.082031 144.648438 152.191406 L 123.128906 152.191406 C 123.011719 152.191406 122.914062 152.234375 122.914062 152.285156 C 122.914062 152.335938 123.011719 152.378906 123.128906 152.378906 L 144.871094 152.378906 C 145.351562 152.746094 145.875 152.960938 146.324219 152.960938 L 123.207031 152.960938 C 122.003906 152.960938 120.261719 151.417969 120.261719 149.519531 C 120.261719 147.617188 122.003906 146.074219 123.207031 146.074219"/><g clip-path="url(#d)"><path fill="#EF3F36" d="M 129.953125 127.84375 C 129.953125 127.84375 134.121094 127.660156 136.332031 131.761719 L 129.601562 131.761719 C 129.601562 131.761719 128.328125 131.722656 127.246094 133.230469 C 126.933594 133.863281 126.597656 134.515625 126.972656 135.804688 C 126.433594 134.90625 124.097656 130.921875 124.097656 130.921875 C 124.097656 130.921875 125.746094 128.003906 129.953125 127.84375 Z M 129.953125 127.84375"/></g><g clip-path="url(#e)"><path fill="#FCD900" d="M 136.117188 138.257812 C 136.117188 138.257812 134.191406 141.886719 129.460938 141.707031 C 130.046875 140.714844 132.828125 135.996094 132.828125 135.996094 C 132.828125 135.996094 133.5 134.9375 132.707031 133.261719 C 132.304688 132.679688 131.894531 132.074219 130.570312 131.75 C 131.632812 131.738281 136.320312 131.75 136.320312 131.75 C 136.320312 131.75 138.074219 134.605469 136.117188 138.257812 Z M 136.117188 138.257812"/></g><g clip-path="url(#f)"><path fill="#61BC5B" d="M 123.824219 138.285156 C 123.824219 138.285156 121.578125 134.839844 124.101562 130.917969 C 124.683594 131.910156 127.464844 136.628906 127.464844 136.628906 C 127.464844 136.628906 128.066406 137.726562 129.941406 137.890625 C 130.660156 137.839844 131.402344 137.796875 132.355469 136.835938 C 131.828125 137.742188 129.476562 141.714844 129.476562 141.714844 C 129.476562 141.714844 126.070312 141.773438 123.824219 138.285156 Z M 123.824219 138.285156"/></g><g clip-path="url(#g)"><path fill="#5AB055" d="M 129.460938 141.738281 L 130.40625 137.871094 C 130.40625 137.871094 131.449219 137.789062 132.320312 136.851562 C 131.777344 137.785156 129.460938 141.738281 129.460938 141.738281 Z M 129.460938 141.738281"/></g><path fill="#FFF" d="M 126.78125 134.832031 C 126.78125 133.128906 128.195312 131.746094 129.9375 131.746094 C 131.679688 131.746094 133.089844 133.128906 133.089844 134.832031 C 133.089844 136.539062 131.679688 137.921875 129.9375 137.921875 C 128.195312 137.921875 126.78125 136.539062 126.78125 134.832031 Z M 126.78125 134.832031"/><g clip-path="url(#h)"><g clip-path="url(#i)"><path fill="url(#j)" d="M 127.3125 132.261719 L 127.3125 137.40625 L 132.5625 137.40625 L 132.5625 132.261719 Z M 127.3125 132.261719"/></g></g><path fill="#EACA05" d="M 136.320312 131.75 L 132.417969 132.871094 C 132.417969 132.871094 131.832031 132.023438 130.566406 131.75 C 131.664062 131.746094 136.320312 131.75 136.320312 131.75 Z M 136.320312 131.75"/><path fill="#DF3A32" d="M 126.898438 135.660156 C 126.351562 134.734375 124.097656 130.921875 124.097656 130.921875 L 126.984375 133.722656 C 126.984375 133.722656 126.6875 134.320312 126.800781 135.171875 Z M 126.898438 135.660156"/></svg>